<svg xmlns="http://www.w3.org/2000/svg" viewBox="0 0 1000 300">
  <style>
    @keyframes dash { 100% { stroke-dashoffset: 0; } }
    @keyframes fill {
      0% { fill-opacity: 0; }
      25% { fill-opacity: 0; }
      50% { fill-opacity: 0; }
      75% { fill-opacity: 0.5; }
      100% { fill-opacity: 1; }
    }
    @keyframes alpha { 100% { stroke-opacity: 0 } }
    @keyframes width {
      0% { stroke-width: 1 }
      25% { stroke-width: 1 }
      50% { stroke-width: 1 }
      75% { stroke-width: 0.5 }
      100% { stroke-width: 0 }
    }
    g {
      --char-total: 7;
      --duration: 0.001ms;
      --seq-duration: calc(var(--char-total) * var(--duration));
      --easing: cubic-bezier(0.25, 0.46, 0.45, 0.94);

      fill: hsl(var(--hsl, 210deg 12% 16%));
    }
    @media (prefers-color-scheme: dark) { g { --hsl: 70deg 100% 73%; } }
    @media (inverted-colors) { g { filter: invert(100%); } }
    @media screen and (prefers-reduced-motion: no-preference) {
      g { --duration: 300ms; }
    }
    path {
      --delay: calc(var(--i, 1) * var(--duration));

      stroke: hsl(var(--hsl, 210deg 12% 16%));
      stroke-width: 1;
      stroke-dasharray: 2150;
      stroke-dashoffset: 2150;
      animation:
        var(--seq-duration) 0s var(--easing) both dash,
        calc(var(--seq-duration)*0.75) var(--delay) linear both fill,
        var(--seq-duration) var(--delay) var(--easing) both width;
    }
    path:nth-of-type(2) { --i: 2; }
    path:nth-of-type(3) { --i: 3; }
    path:nth-of-type(4) { --i: 4; }
    path:nth-of-type(5) { --i: 5; }
    path:nth-of-type(6) { --i: 6; }
    path:nth-of-type(7) { --i: 7; }
  </style>
  <g fill="currentColor"><path d="M331.448 238.056c36.72 0 65.232-21.6 65.232-55.44 0-33.84-22.176-47.952-60.048-55.584-26.064-5.184-48.096-10.8-48.096-26.784 0-19.008 38.592-25.92 70.848-32.688l19.296-4.032-.144-1.44-19.584 4.032C325.976 72.888 275 82.68 275 100.248c0 12.24 19.728 19.872 54.144 26.64 25.488 5.04 40.896 20.016 40.896 55.44 0 39.024-17.856 54.288-40.176 54.288h-9.792V128.904h-23.76v107.712h-13.104v1.44h48.24z"/><path d="M519.416 189.816c-3.456 30.096 31.968 41.76 15.408 41.76-10.08 0-19.584-1.872-28.08-5.184 0-28.224 4.752-45.072 18.864-45.072 24.624 0 27.072 53.856 50.256 53.856 7.488 0 11.808-4.176 11.808-13.68 0-24.048-28.656-50.544-57.744-50.544-32.4 0-43.92 17.568-53.568 31.536-2.304-4.176-3.6-8.64-3.6-12.96 0-17.28 13.536-21.168 42.768-23.76l33.696-3.024c33.84-3.024 42.912-22.608 42.912-45.504 0-9.648-6.912-25.488-20.736-25.488-28.944 0-24.912 60.48-94.176 62.352v1.152c59.328-.72 76.752-49.824 101.808-49.824 7.776 0 11.808 3.312 11.808 9.648 0 10.224-14.832 14.256-45.36 25.056l-35.424 12.528c-23.328 8.208-39.312 17.568-39.312 36 0 5.328 1.728 10.656 4.608 15.408-5.904 8.928-11.376 15.984-21.168 15.984-11.952 0-18.864-13.104-18.864-27.504 0-31.104 24.48-40.752 63.216-50.976l14.688-3.888v-1.296l-14.112 3.6c-18 4.608-40.176-2.448-40.176-20.016 0-15.696 17.136-19.728 36.576-14.688 18.144 4.752 39.024 13.968 38.88-3.024 0-15.84-28.224-28.368-28.224-76.608V15h-1.008v10.368c0 50.544 17.136 61.632 18 77.904.576 10.944-10.512 4.896-30.672-.288-29.376-7.632-56.304-3.168-56.304 16.128 0 18.576 26.784 25.2 53.712 23.184v.576c-44.784 6.192-81.216 17.136-81.216 43.056 0 26.208 28.224 35.136 45.648 35.136 10.8 0 19.152-4.176 26.352-9.936 6.192 6.624 14.832 12.24 24.624 16.128v57.888h1.44v-57.312c8.784 3.312 18.288 5.184 27.792 5.184 48.384 0-16.272-7.056-15.12-43.2zm10.224-17.424c26.064 0 43.776 17.136 43.776 38.304 0 5.184-1.728 7.056-4.176 7.056-10.224 0-18.432-40.032-42.768-40.032-13.968 0-21.168 12.816-21.168 41.04v7.056c-9.648-3.888-17.712-9.36-23.472-15.696 16.704-14.4 27.072-37.728 47.808-37.728z"/><path d="M669.368 238.056c-36.72 0-65.232-21.6-65.232-55.44 0-33.84 22.176-47.952 60.048-55.584 26.064-5.184 48.096-10.8 48.096-26.784 0-19.008-38.592-25.92-70.848-32.688l-19.296-4.032.144-1.44 19.584 4.032c32.976 6.768 83.952 16.56 83.952 34.128 0 12.24-19.728 19.872-54.144 26.64-25.488 5.04-40.896 20.016-40.896 55.44 0 39.024 17.856 54.288 40.176 54.288h9.792V128.904h23.76v107.712h13.104v1.44h-48.24z"/><path d="M30.275 254.448h1.728V0L3.635 12.24v1.584l26.64-11.52v252.144z"/><path d="M67.953 110.448h1.872V1.296h-1.872v109.152z"/><path d="M930 110.448h1.872V1.296H930v109.152z"/><path d="M980.212 254.448h1.728V0l-28.368 12.24v1.584l26.64-11.52v252.144z"/></g>
</svg>
