<svg xmlns="http://www.w3.org/2000/svg" viewBox="0 0 64 64">
  <style>
    @keyframes dash { 100% { stroke-dashoffset: 0; } }
    path {
      --duration: 0.001ms;
      --easing: cubic-bezier(0.25, 0.46, 0.45, 0.94);
      --delay: calc(var(--i, 1) * var(--duration) + var(--pre, 2100ms));

      stroke: hsl(var(--hsl, 210deg 12% 16%));
      stroke-width: 1;
      stroke-dasharray: var(--arr, 150);
      stroke-dashoffset: var(--off, 150);
      animation: var(--duration) var(--delay) var(--easing) both dash;
    }
    path:nth-of-type(2) {
      --i: 2;
      --arr: 200;
      --off: 200;
    }
    @media (prefers-color-scheme: dark) { path { --hsl: 70deg 100% 73%; } }
    @media (inverted-colors) { path { filter: invert(100%); } }
    @media screen and (prefers-reduced-motion: no-preference) {
      path { --duration: 300ms; }
    }
  </style>
  <g fill="none" stroke="currentColor"><path d="M14.67 32.127l.007-.003.008-.003c9.329-4.065 15.546-6.743 18.654-8.035 4.445-1.85 7.118-2.93 8.828-3.55 1.719-.624 2.413-.763 2.925-.772.093-.001.265.01.45.054.19.045.354.116.466.207.178.144.24.345.278.562.038.22.085.742.049 1.128-.48 5.035-2.559 17.293-3.62 22.962-.44 2.35-1.244 2.83-1.74 2.875-.782.072-1.492-.18-2.258-.63a16.74 16.74 0 01-1.186-.79l-.207-.147c-.348-.248-.715-.51-1.099-.761a230.843 230.843 0 01-3.594-2.41l-.145-.1a263.31 263.31 0 00-3.401-2.287c-.764-.503-1.145-.908-1.31-1.225a.828.828 0 01-.023-.784c.132-.3.4-.628.792-1.026.17-.174.354-.35.55-.54l.076-.073c.222-.215.457-.443.689-.684.105-.109.628-.594 1.373-1.287.851-.791 1.993-1.852 3.136-2.932a141.755 141.755 0 002.924-2.825c.401-.403.743-.759.992-1.038.124-.14.231-.266.312-.374.04-.054.08-.11.112-.165a.806.806 0 00.095-.224c.025-.107.036-.27.01-.44a1.01 1.01 0 00-.314-.613.979.979 0 00-.655-.238 1.962 1.962 0 00-.448.06h-.002c-.091.02-.182.069-.222.09l-.003.001a5.401 5.401 0 00-.223.126c-.173.103-.412.251-.712.442-.602.382-1.466.946-2.591 1.69a1335.042 1335.042 0 00-9.916 6.645h0l-.003.003c-1.231.845-2.285 1.213-3.177 1.194-.51-.011-1.298-.16-2.192-.384a41.522 41.522 0 01-2.638-.769 77.546 77.546 0 00-.735-.234c-.706-.222-1.29-.406-1.734-.621-.29-.14-.462-.268-.556-.384a.391.391 0 01-.091-.325c.01-.084.091-.268.45-.535.348-.258.88-.537 1.619-.831z"/><path d="M63.5 32c0 17.397-14.103 31.5-31.5 31.5S.5 49.397.5 32 14.603.5 32 .5 63.5 14.603 63.5 32z"/></g>
</svg>
